<?xml version="1.0" encoding="UTF-8"?><svg id="Layer_1" xmlns="http://www.w3.org/2000/svg" xmlns:xlink="http://www.w3.org/1999/xlink" viewBox="0 0 115.52 52.73"><defs><style>.cls-1{fill:#0073bc;}.cls-2{fill:#939598;}.cls-3{fill:#6d6e71;}.cls-4{fill:#061922;}.cls-5{clip-path:url(#clippath);}.cls-6{stroke:#6d6e71;stroke-miterlimit:2.61;stroke-width:.41px;}.cls-6,.cls-7{fill:none;}.cls-8{fill:#58595b;}</style><clipPath id="clippath"><rect class="cls-7" y="0" width="115.52" height="52.73"/></clipPath></defs><polygon class="cls-2" points="50.97 14.76 50.97 27.9 41.18 27.9 41.18 4.49 50.97 14.76"/><polygon class="cls-8" points="41.18 4.49 76.3 4.49 76.3 14.78 50.94 14.78 41.18 4.49"/><polygon class="cls-8" points="66.5 29.33 66.5 16.19 76.3 16.19 76.3 39.61 66.5 29.33"/><polygon class="cls-2" points="76.3 39.61 41.18 39.61 41.18 29.31 66.54 29.31 76.3 39.61"/><g class="cls-5"><path class="cls-3" d="M108.12,52.43v-10.14h1.02v4.47h5.24v-4.47h1.02v10.14h-1.02v-4.76h-5.24v4.76h-1.02Zm-1.62-2.66h0c-.37,.82-.99,1.5-1.87,2.03-.87,.53-1.8,.8-2.78,.8-1.49,0-2.75-.51-3.78-1.52-1.03-1.02-1.55-2.25-1.55-3.72s.52-2.71,1.55-3.73c1.03-1.01,2.29-1.52,3.78-1.52,.96,0,1.86,.26,2.72,.78,.85,.52,1.46,1.19,1.83,1.99h-1.1c-.32-.55-.8-.99-1.45-1.34-.64-.35-1.31-.52-2-.52-1.21,0-2.22,.42-3.06,1.26-.83,.84-1.25,1.87-1.25,3.08s.42,2.24,1.25,3.08c.83,.84,1.85,1.25,3.06,1.25,.71,0,1.39-.18,2.06-.54,.67-.36,1.16-.82,1.49-1.38h1.1Zm-16.97,2.66h0v-10.14h5.56v.92h-4.54v3.65h4.4v.92h-4.4v3.74h4.54v.92h-5.56Zm-4.39,0v-9.23h-2.32v-.92h5.66v.92h-2.32v9.23h-1.02Zm-9.77,0v-10.14h3.09c1.19,0,2.11,.28,2.79,.86,.67,.57,1,1.36,1,2.38s-.33,1.79-1,2.36c-.52,.43-1.19,.7-2.02,.81l2.9,3.74h-1.29l-3.47-4.61h1.09c.87,0,1.54-.2,2.03-.61,.49-.4,.73-.97,.73-1.69s-.25-1.3-.73-1.71c-.49-.41-1.16-.61-2.03-.61h-2.08v9.23h-1.02Zm-7.35,0h0v-10.14h5.56v.92h-4.54v3.65h4.4v.92h-4.4v3.74h4.54v.92h-5.56Zm-10.47-10.14h1.1l3.62,8.95,3.61-8.95h1.06l-4.18,10.14h-1.02l-4.19-10.14Zm-5.32,10.14h0v-10.14h1.02v9.23h4.19v.92h-5.21Zm-3.18,0v-10.14h1.02v10.14h-1.02Zm-2.62-7.56h0c-.06-.57-.26-1.02-.59-1.35-.33-.33-.75-.5-1.26-.5s-.95,.16-1.31,.49c-.36,.33-.54,.74-.54,1.21s.16,.84,.47,1.12c.31,.28,.84,.52,1.59,.72,1,.27,1.73,.65,2.18,1.14,.45,.49,.68,1.14,.68,1.95s-.3,1.52-.89,2.08c-.6,.57-1.33,.86-2.2,.86-.92,0-1.66-.28-2.23-.84-.57-.56-.86-1.28-.86-2.17h1c.07,.69,.29,1.21,.65,1.57,.35,.36,.84,.54,1.44,.54s1.09-.19,1.5-.57c.4-.38,.61-.85,.61-1.4s-.18-1.03-.54-1.36c-.35-.34-.95-.62-1.8-.85-.9-.24-1.56-.59-1.97-1.02-.41-.43-.62-.99-.62-1.7,0-.75,.28-1.39,.82-1.9s1.22-.77,2.01-.77,1.48,.26,2.02,.79c.54,.52,.81,1.18,.81,1.97h-.99Z"/><path class="cls-6" d="M108.05,52.35h1.02v-4.69h5.23v4.69h1.01v-9.99h-1.01v4.4h-5.23v-4.4h-1.02v9.99Zm-2.71-2.62c-.33,.55-.82,1.01-1.49,1.36-.66,.35-1.35,.53-2.06,.53-1.2,0-2.22-.41-3.05-1.24-.83-.82-1.25-1.83-1.25-3.03s.42-2.21,1.25-3.03c.83-.82,1.85-1.24,3.05-1.24,.69,0,1.35,.17,1.99,.51,.64,.34,1.13,.78,1.45,1.33h1.1c-.36-.8-.97-1.45-1.83-1.97-.85-.52-1.75-.77-2.71-.77-1.49,0-2.75,.5-3.78,1.5-1.03,1-1.55,2.22-1.55,3.67s.52,2.67,1.55,3.67c1.03,1,2.29,1.5,3.78,1.5,.97,0,1.9-.26,2.77-.79,.87-.53,1.49-1.19,1.86-2h-1.1Zm-10.29,2.62v-.9h-4.53v-3.69h4.39v-.9h-4.39v-3.59h4.53v-.9h-5.55v9.99h5.55Zm-9.93,0h1.01v-9.09h2.32v-.9h-5.65v.9h2.32v9.09Zm-9.75,0h1.01v-9.09h2.07c.86,0,1.54,.2,2.02,.6,.49,.4,.73,.96,.73,1.68s-.24,1.27-.73,1.67c-.49,.4-1.16,.6-2.02,.6h-1.09l3.47,4.54h1.28l-2.89-3.69c.82-.11,1.49-.37,2.01-.8,.67-.56,1-1.33,1-2.33s-.33-1.78-1-2.34-1.6-.84-2.78-.84h-3.09v9.99Zm-1.79,0v-.9h-4.53v-3.69h4.39v-.9h-4.39v-3.59h4.53v-.9h-5.54v9.99h5.54Zm-11.82,0h1.02l4.18-9.99h-1.06l-3.6,8.81-3.62-8.81h-1.1l4.18,9.99Zm-4.29,0v-.9h-4.18v-9.09h-1.02v9.99h5.2Zm-8.37,0h1.02v-9.99h-1.02v9.99Zm-1.62-7.45c0-.78-.27-1.43-.81-1.94-.54-.52-1.21-.77-2.02-.77s-1.47,.26-2.01,.76c-.55,.51-.82,1.13-.82,1.87,0,.69,.2,1.25,.61,1.68,.41,.43,1.06,.76,1.97,1,.85,.23,1.45,.51,1.8,.84,.35,.33,.53,.78,.53,1.34s-.2,1-.61,1.38c-.41,.38-.9,.56-1.49,.56s-1.09-.18-1.44-.53c-.35-.35-.57-.86-.65-1.54h-1c0,.88,.29,1.59,.85,2.14,.57,.55,1.31,.82,2.23,.82,.86,0,1.6-.28,2.19-.84,.6-.56,.9-1.24,.9-2.05s-.23-1.44-.68-1.92c-.45-.48-1.18-.86-2.18-1.13-.75-.2-1.28-.43-1.59-.71-.31-.28-.47-.64-.47-1.1s.18-.87,.54-1.19c.36-.33,.79-.49,1.31-.49s.92,.16,1.25,.49c.33,.33,.52,.77,.59,1.33h.99Z"/><rect class="cls-4" x=".16" y="4.49" width="35.88" height="16.87"/><rect class="cls-4" x=".13" y="22.23" width="17.41" height="16.99"/><polygon class="cls-1" points="35.85 22.29 18.64 22.29 18.64 39.21 35.85 22.29"/><polygon class="cls-4" points="2.97 52.11 2.97 49.21 8.84 49.21 8.84 46.71 2.97 46.71 2.97 45.52 9.6 45.52 9.6 42.91 0 42.91 0 52.11 2.97 52.11"/><path class="cls-4" d="M18.97,51.92s2.39,.08,2.39-2.2v-6.81h-2.9v6.16s-.03,.71-.63,.71h-3.74s-.53-.03-.53-.53-.01-6.39-.01-6.39h-2.71v7s.03,1.9,1.84,2.06h6.3Z"/><path class="cls-4" d="M29.53,52.15s1.9-.25,1.9-2.07v-7.14h-2.76v6s.08,.57-.38,.57h-2.93s-.33,.06-.33-.41v-1.11h-2.72v2.33s.11,1.82,1.76,1.82h5.46Z"/><rect class="cls-4" x="32.7" y="42.75" width="2.99" height="9.41"/><path class="cls-8" d="M79.21,4.06V.6h-1.31V0h3.31V.6h-1.32v3.45h-.68Zm2.45,0V0h1l1.02,3.24,.99-3.24h.98V4.06h-.62V.65l-1.04,3.4h-.61l-1.09-3.45v3.45h-.62Z"/></g></svg>