<svg xmlns="http://www.w3.org/2000/svg" width="183.429" height="102.955" viewBox="0 0 183.429 102.955">
  <g id="fuji-logo" transform="translate(-223.3 -156.6)">
    <path id="Path_111" data-name="Path 111" d="M293.545,178.862v20.926H278V162.6Z" transform="translate(10.708 1.175)" fill="#929497"/>
    <path id="Path_112" data-name="Path 112" d="M278,162.6h55.842v16.262h-40.3Z" transform="translate(10.708 1.175)" fill="#4d4d4f"/>
    <path id="Path_113" data-name="Path 113" d="M311.6,199.026V178.1h15.664v37.188Z" transform="translate(17.285 4.209)" fill="#4d4d4f"/>
    <path id="Path_114" data-name="Path 114" d="M333.842,211.882H278V195.5h40.3Z" transform="translate(10.708 7.615)" fill="#929497"/>
    <path id="Path_115" data-name="Path 115" d="M384.224,229V212.859H385.9v7.055h8.37v-7.055h1.674V229h-1.674v-7.533H385.9V229h-1.674Zm-2.511-4.3h0a7.038,7.038,0,0,1-2.989,3.229,8.644,8.644,0,0,1-4.424,1.315,8.2,8.2,0,0,1-5.979-2.392,7.779,7.779,0,0,1-2.511-5.859,8.038,8.038,0,0,1,2.511-5.979,8.4,8.4,0,0,1,5.979-2.392,7.946,7.946,0,0,1,7.175,4.3h-1.794a6.578,6.578,0,0,0-2.272-2.152,6.205,6.205,0,0,0-3.229-.837,6.935,6.935,0,0,0,0,13.871,6.2,6.2,0,0,0,3.229-.837,7.012,7.012,0,0,0,2.392-2.152h1.913ZM354.689,229h0V212.859h8.849v1.435h-7.175v5.74H363.3v1.435h-6.935v5.979h7.175v1.435h-8.849Zm-6.935,0V214.294h-3.707v-1.435h8.968v1.435h-3.707V229h-1.554Zm-15.545,0V212.859h4.9a6.964,6.964,0,0,1,4.424,1.315A4.716,4.716,0,0,1,343.09,218a4.471,4.471,0,0,1-1.554,3.707,6.6,6.6,0,0,1-3.229,1.315L342.971,229h-2.152l-5.5-7.294h1.794a4.949,4.949,0,0,0,3.229-.957,3.426,3.426,0,0,0,1.2-2.631,3.306,3.306,0,0,0-1.2-2.75,4.949,4.949,0,0,0-3.229-.957h-3.348v14.708h-1.555Zm-11.6,0h0V212.859h8.849v1.435h-7.175v5.74h6.935v1.435h-7.055v5.979h7.175v1.435H320.61ZM303.87,212.859h1.674l5.74,14.229,5.74-14.229H318.7L312,229h-1.435ZM295.5,229h0V212.859h1.674v14.588h6.7v1.435H295.5Zm-5.142,0V212.859h1.674V229h-1.674Zm-4.066-12.077h0a3.031,3.031,0,0,0-.957-2.152,2.885,2.885,0,0,0-2.033-.837,2.463,2.463,0,0,0-2.033.837,2.379,2.379,0,0,0-.837,1.913,2.433,2.433,0,0,0,.717,1.794,6.114,6.114,0,0,0,2.511,1.2,8.5,8.5,0,0,1,3.468,1.794,4.47,4.47,0,0,1,1.076,3.109,4.525,4.525,0,0,1-1.435,3.348,4.679,4.679,0,0,1-3.468,1.315,5.293,5.293,0,0,1-3.587-1.315,4.344,4.344,0,0,1-1.315-3.468h1.554a4.061,4.061,0,0,0,1.076,2.511,2.977,2.977,0,0,0,2.272.837,3.555,3.555,0,0,0,2.392-.957,3.062,3.062,0,0,0,.957-2.272,2.558,2.558,0,0,0-.837-2.152,8.062,8.062,0,0,0-2.87-1.315,5.884,5.884,0,0,1-3.109-1.674,4.222,4.222,0,0,1,.359-5.74,4.545,4.545,0,0,1,7.772,3.109h-1.674Z" transform="translate(10.786 10.943)" fill="#6d6e70"/>
    <path id="Path_116" data-name="Path 116" d="M287.866,216.9a4.666,4.666,0,0,0-7.772-3.109,4.075,4.075,0,0,0-1.315,2.989,4.264,4.264,0,0,0,.957,2.75,6.84,6.84,0,0,0,3.109,1.674,8.062,8.062,0,0,1,2.87,1.315,2.882,2.882,0,0,1,.837,2.152,3.5,3.5,0,0,1-.957,2.272,3.339,3.339,0,0,1-2.392.957,2.977,2.977,0,0,1-2.272-.837,4.061,4.061,0,0,1-1.076-2.511H278.3a4.989,4.989,0,0,0,1.315,3.468,5.293,5.293,0,0,0,3.587,1.315,4.989,4.989,0,0,0,3.468-1.315,4.525,4.525,0,0,0,1.435-3.348,4.47,4.47,0,0,0-1.076-3.109,6.368,6.368,0,0,0-3.468-1.794,6.115,6.115,0,0,1-2.511-1.2,2.434,2.434,0,0,1-.717-1.794,2.379,2.379,0,0,1,.837-1.913,3.392,3.392,0,0,1,2.033-.837,2.623,2.623,0,0,1,2.033.837,3.611,3.611,0,0,1,.957,2.152h1.674Z" transform="translate(10.767 10.962)" fill="none" stroke="#6d6e70" stroke-miterlimit="2.613" stroke-width="0.135"/>
    <path id="Path_117" data-name="Path 117" d="M288.4,228.943h1.674V212.8H288.4Z" transform="translate(12.744 11.002)" fill="none" stroke="#6d6e70" stroke-miterlimit="2.613" stroke-width="0.135"/>
    <path id="Path_118" data-name="Path 118" d="M300.951,228.943v-1.554h-6.7V212.8H292.7v16.143Z" transform="translate(13.586 11.002)" fill="none" stroke="#6d6e70" stroke-miterlimit="2.613" stroke-width="0.135"/>
    <path id="Path_119" data-name="Path 119" d="M306.4,228.943h1.674l6.577-16.143h-1.674l-5.74,14.23-5.74-14.23H299.7Z" transform="translate(14.956 11.002)" fill="none" stroke="#6d6e70" stroke-miterlimit="2.613" stroke-width="0.135"/>
    <path id="Path_120" data-name="Path 120" d="M322.429,228.943v-1.554h-7.175v-5.859h7.055v-1.554h-7.055v-5.74h7.175V212.8H313.7v16.143Z" transform="translate(17.696 11.002)" fill="none" stroke="#6d6e70" stroke-miterlimit="2.613" stroke-width="0.135"/>
    <path id="Path_121" data-name="Path 121" d="M323.4,228.943h1.674V214.235h3.348a5.187,5.187,0,0,1,3.229.957,3.5,3.5,0,0,1,1.2,2.75,3.306,3.306,0,0,1-1.2,2.75,4.949,4.949,0,0,1-3.229.957h-1.674l5.5,7.294H334.4l-4.663-5.979a5.644,5.644,0,0,0,3.229-1.315,4.628,4.628,0,0,0,1.554-3.707,4.879,4.879,0,0,0-1.554-3.826,6.32,6.32,0,0,0-4.424-1.315h-4.9v16.143Z" transform="translate(19.595 11.002)" fill="none" stroke="#6d6e70" stroke-miterlimit="2.613" stroke-width="0.135"/>
    <path id="Path_122" data-name="Path 122" d="M337.007,228.943h1.674V214.235h3.587V212.8H333.3v1.435h3.707Z" transform="translate(21.533 11.002)" fill="none" stroke="#6d6e70" stroke-miterlimit="2.613" stroke-width="0.135"/>
    <path id="Path_123" data-name="Path 123" d="M351.049,228.943v-1.554h-7.174v-5.859h6.935v-1.554h-6.935v-5.74h7.174V212.8H342.2v16.143Z" transform="translate(23.275 11.002)" fill="none" stroke="#6d6e70" stroke-miterlimit="2.613" stroke-width="0.135"/>
    <path id="Path_124" data-name="Path 124" d="M365.59,224.716a5.29,5.29,0,0,1-2.392,2.152,6.508,6.508,0,0,1-3.229.837,6.935,6.935,0,0,1,0-13.871,6.509,6.509,0,0,1,3.229.837,5.67,5.67,0,0,1,2.272,2.152h1.794a7.44,7.44,0,0,0-2.87-3.229,7.807,7.807,0,0,0-4.3-1.2,8.2,8.2,0,0,0-5.979,2.392,8.038,8.038,0,0,0-2.511,5.979,7.6,7.6,0,0,0,2.511,5.859,8.426,8.426,0,0,0,10.4,1.076,7.038,7.038,0,0,0,2.989-3.229H365.59Z" transform="translate(25.116 10.923)" fill="none" stroke="#6d6e70" stroke-miterlimit="2.613" stroke-width="0.135"/>
    <path id="Path_125" data-name="Path 125" d="M366.9,228.943h1.674V221.29h8.37v7.653H378.5V212.8h-1.555v7.055h-8.37V212.8H366.9Z" transform="translate(28.111 11.002)" fill="none" stroke="#6d6e70" stroke-miterlimit="2.613" stroke-width="0.135"/>
    <rect id="Rectangle_100" data-name="Rectangle 100" width="57.038" height="26.785" transform="translate(223.539 163.775)" fill="#231917"/>
    <rect id="Rectangle_101" data-name="Rectangle 101" width="27.622" height="27.024" transform="translate(223.539 191.875)" fill="#231917"/>
    <path id="Path_126" data-name="Path 126" d="M275.383,186.2H248v26.9Z" transform="translate(4.835 5.794)" fill="#0073bb"/>
    <path id="Path_127" data-name="Path 127" d="M227.963,228.188v-4.544h9.327V219.7h-9.327v-1.913h10.523V213.6H223.3v14.588Z" transform="translate(0 11.158)" fill="#231917"/>
    <path id="Path_128" data-name="Path 128" d="M250.614,227.969s3.826.12,3.826-3.468V213.62h-4.663v9.805s0,1.076-.957,1.076h-5.979a.82.82,0,0,1-.837-.837V213.5h-4.3v11.121s0,2.989,2.87,3.229h10.044Z" transform="translate(2.819 11.139)" fill="#231917"/>
    <path id="Path_129" data-name="Path 129" d="M264.36,228.308a3.383,3.383,0,0,0,2.989-3.348V213.6h-4.424v9.566s.12.957-.6.957h-4.544s-.478.12-.478-.6v-1.794H253v3.707s.12,2.87,2.75,2.87Z" transform="translate(5.814 11.158)" fill="#231917"/>
    <rect id="Rectangle_102" data-name="Rectangle 102" width="4.783" height="14.947" transform="translate(275.196 224.519)" fill="#231917"/>
    <path id="Path_130" data-name="Path 130" d="M227.824,243.909h-1.794v-7.175H223.4V235.3h7.055v1.435h-2.631Z" transform="translate(0.02 15.406)" fill="#404041"/>
    <path id="Path_131" data-name="Path 131" d="M235.859,243.929h-1.674v-3.946c0-.478,0-1.315-1.076-1.315a1.29,1.29,0,0,0-1.315,1.435v3.707H230V235.2h1.674v3.109h0a2.138,2.138,0,0,1,1.913-.957,2.1,2.1,0,0,1,2.272,2.152Z" transform="translate(1.312 15.386)" fill="#404041"/>
    <path id="Path_132" data-name="Path 132" d="M241.8,241.663a2.756,2.756,0,0,1-2.87,2.033c-1.794,0-3.229-.837-3.229-3.468A2.985,2.985,0,0,1,238.809,237c1.315,0,2.989.6,2.989,3.587v.359h-4.424a1.4,1.4,0,0,0,1.555,1.554,1.046,1.046,0,0,0,1.076-.717H241.8Zm-1.674-1.913c-.12-1.076-.717-1.315-1.315-1.315-.837,0-1.2.478-1.315,1.315Z" transform="translate(2.427 15.739)" fill="#404041"/>
    <path id="Path_133" data-name="Path 133" d="M246.394,243.909H244.6V235.3h6.1v1.435h-4.3v2.033h3.826v1.555h-3.826Z" transform="translate(4.17 15.406)" fill="#404041"/>
    <path id="Path_134" data-name="Path 134" d="M256.34,243.557h-1.674V242.6h0a2.028,2.028,0,0,1-1.913,1.076c-1.315,0-2.152-.717-2.152-2.392V237.1h1.674v3.946c0,.957.6,1.2,1.076,1.2a1.284,1.284,0,0,0,1.315-1.435V237.1h1.674Z" transform="translate(5.344 15.758)" fill="#404041"/>
    <path id="Path_135" data-name="Path 135" d="M258.711,237.413h1.076v1.2h-1.076v3.468c0,.359,0,.478.717.478h.359v1.315h-1.076c-1.435,0-1.674-.6-1.674-1.435v-3.946H256.2v-1.2h.837V235.5h1.674v1.913Z" transform="translate(6.44 15.445)" fill="#404041"/>
    <path id="Path_136" data-name="Path 136" d="M265.84,243.557h-1.674V242.6h0a2.028,2.028,0,0,1-1.913,1.076c-1.315,0-2.152-.717-2.152-2.392V237.1h1.674v3.946c0,.957.6,1.2,1.076,1.2a1.284,1.284,0,0,0,1.315-1.435V237.1h1.674Z" transform="translate(7.204 15.758)" fill="#404041"/>
    <path id="Path_137" data-name="Path 137" d="M266.1,237.139h1.674v1.076h0c.359-.6.717-1.315,1.794-1.315h.359v1.674h-.478a1.376,1.376,0,0,0-1.554,1.555v3.348H266.22v-6.337Z" transform="translate(8.378 15.719)" fill="#404041"/>
    <path id="Path_138" data-name="Path 138" d="M275.6,241.663a2.756,2.756,0,0,1-2.87,2.033c-1.794,0-3.229-.837-3.229-3.468A2.985,2.985,0,0,1,272.609,237c1.315,0,2.989.6,2.989,3.587v.359h-4.3a1.4,1.4,0,0,0,1.554,1.554,1.046,1.046,0,0,0,1.076-.717H275.6Zm-1.674-1.913c-.12-1.076-.717-1.315-1.315-1.315-.837,0-1.2.478-1.315,1.315Z" transform="translate(9.044 15.739)" fill="#404041"/>
    <path id="Path_139" data-name="Path 139" d="M280.074,236.754H278.4V235.2h1.674Zm0,7.175H278.4v-6.457h1.674Z" transform="translate(10.786 15.386)" fill="#404041"/>
    <path id="Path_140" data-name="Path 140" d="M284.766,239.172a.97.97,0,0,0-1.076-.837c-.957,0-1.076.359-1.076.6,0,.957,4.066.239,4.066,2.631,0,1.913-1.794,2.152-2.87,2.152-1.435,0-2.989-.478-3.109-2.272h1.794c0,.6.359.957,1.435.957.837,0,1.076-.478,1.076-.717,0-1.076-3.946-.239-3.946-2.631,0-.957.6-2.152,2.631-2.152,1.2,0,2.75.359,2.87,2.152h-1.794Z" transform="translate(11.236 15.719)" fill="#404041"/>
    <path id="Path_141" data-name="Path 141" d="M291.294,243.909H289.5V235.3h3.946a2.574,2.574,0,0,1,2.75,2.75,2.646,2.646,0,0,1-2.75,2.75h-2.152Zm1.674-4.663c1.315,0,1.315-.957,1.315-1.315,0-.837-.478-1.2-1.554-1.2h-1.435v2.511Z" transform="translate(12.959 15.406)" fill="#404041"/>
    <path id="Path_142" data-name="Path 142" d="M296.1,237.139h1.674v1.076h0c.359-.6.717-1.315,1.794-1.315h.359v1.674h-.478a1.376,1.376,0,0,0-1.554,1.555v3.348H296.22v-6.337Z" transform="translate(14.251 15.719)" fill="#404041"/>
    <path id="Path_143" data-name="Path 143" d="M305.6,241.663a2.756,2.756,0,0,1-2.87,2.033c-1.794,0-3.229-.837-3.229-3.468A2.985,2.985,0,0,1,302.609,237c1.315,0,2.989.6,2.989,3.587v.359h-4.424a1.4,1.4,0,0,0,1.554,1.554,1.046,1.046,0,0,0,1.076-.717H305.6Zm-1.674-1.913c-.12-1.076-.717-1.315-1.315-1.315-.837,0-1.2.478-1.315,1.315Z" transform="translate(14.917 15.739)" fill="#404041"/>
    <path id="Path_144" data-name="Path 144" d="M311.079,241.3a2.793,2.793,0,0,1-2.989,2.511c-2.392,0-2.989-1.794-2.989-3.229,0-2.033.957-3.587,3.109-3.587a2.753,2.753,0,0,1,2.87,2.511H309.4c-.12-.478-.359-1.076-1.076-1.076-1.076,0-1.315,1.076-1.315,1.913,0,.717,0,2.033,1.315,2.033a1.265,1.265,0,0,0,1.2-1.076h1.554Z" transform="translate(16.013 15.739)" fill="#404041"/>
    <path id="Path_145" data-name="Path 145" d="M316.3,242.381c0,.717.12.957.359.957v.239h-1.794a1.517,1.517,0,0,1-.12-.717,2.721,2.721,0,0,1-2.033.957A1.815,1.815,0,0,1,310.8,241.9a1.993,1.993,0,0,1,1.913-2.033l1.554-.239c.239,0,.6-.12.6-.478,0-.717-.717-.717-1.076-.717a.97.97,0,0,0-1.076.837h-1.674c.239-1.913,1.554-2.272,2.87-2.272.957,0,2.511.239,2.511,1.913v3.468Zm-1.674-1.913a2.707,2.707,0,0,1-1.2.359c-.6.12-1.2.239-1.2.957,0,.6.478.717.837.717a1.46,1.46,0,0,0,1.554-1.315Z" transform="translate(17.129 15.739)" fill="#404041"/>
    <path id="Path_146" data-name="Path 146" d="M320.366,239.172a.97.97,0,0,0-1.076-.837c-.957,0-1.076.359-1.076.6,0,.957,4.066.239,4.066,2.631,0,1.913-1.794,2.152-2.87,2.152-1.435,0-2.989-.478-3.109-2.272h1.794c0,.6.359.957,1.435.957.837,0,1.076-.478,1.076-.717,0-1.076-3.946-.239-3.946-2.631,0-.957.6-2.152,2.631-2.152,1.2,0,2.75.359,2.87,2.152h-1.794Z" transform="translate(18.205 15.719)" fill="#404041"/>
    <path id="Path_147" data-name="Path 147" d="M324.211,237.413h1.076v1.2h-1.076v3.468c0,.359,0,.478.717.478h.359v1.315h-1.076c-1.435,0-1.674-.6-1.674-1.435v-3.946H321.7v-1.2h.837V235.5h1.674Z" transform="translate(19.262 15.445)" fill="#404041"/>
    <path id="Path_148" data-name="Path 148" d="M328.833,163.057v-5.5H326.8V156.6h5.261v.957h-2.152v5.5Zm3.946,0V156.6h1.554l1.674,5.142,1.554-5.142h1.554v6.457h-.957v-5.381l-1.674,5.381h-.957l-1.674-5.5v5.5Z" transform="translate(20.261)" fill="#4d4d4f"/>
  </g>
</svg>
